<mxfile host="app.diagrams.net" modified="2020-11-18T14:44:55.560Z" agent="5.0 (Macintosh; Intel Mac OS X 10_15_7) AppleWebKit/605.1.15 (KHTML, like Gecko) Version/14.0.1 Safari/605.1.15" etag="NS8ZHSfyvGaduWxVSzyx" version="13.9.9" type="github">
  <diagram id="4FILuT8nZkW5rGsS9tT-" name="第 1 页">
    <mxGraphModel dx="1426" dy="842" grid="1" gridSize="10" guides="1" tooltips="1" connect="1" arrows="1" fold="1" page="1" pageScale="1" pageWidth="827" pageHeight="1169" math="0" shadow="0">
      <root>
        <mxCell id="0" />
        <mxCell id="1" parent="0" />
        <mxCell id="EnKquhXfZ4X2Hym33VpJ-1" value="&lt;span style=&quot;font-family: &amp;quot;pingfang sc&amp;quot;, &amp;quot;lantinghei sc&amp;quot;, &amp;quot;microsoft yahei&amp;quot;, &amp;quot;hiragino sans gb&amp;quot;, &amp;quot;microsoft sans serif&amp;quot;, &amp;quot;wenquanyi micro hei&amp;quot;, helvetica, sans-serif;&quot;&gt;TASK_RUNNING&lt;/span&gt;" style="rounded=0;whiteSpace=wrap;html=1;fontSize=16;fontFamily=Comic Sans MS;fillColor=#dae8fc;strokeColor=none;labelBorderColor=none;labelBackgroundColor=none;shadow=1;" vertex="1" parent="1">
          <mxGeometry x="349" y="230" width="210" height="60" as="geometry" />
        </mxCell>
        <mxCell id="EnKquhXfZ4X2Hym33VpJ-17" style="edgeStyle=none;rounded=0;orthogonalLoop=1;jettySize=auto;html=1;entryX=0.5;entryY=0;entryDx=0;entryDy=0;fontFamily=Comic Sans MS;fontSize=18;" edge="1" parent="1" source="EnKquhXfZ4X2Hym33VpJ-2" target="EnKquhXfZ4X2Hym33VpJ-1">
          <mxGeometry relative="1" as="geometry" />
        </mxCell>
        <mxCell id="EnKquhXfZ4X2Hym33VpJ-2" value="创建进程" style="text;html=1;align=center;verticalAlign=middle;resizable=0;points=[];autosize=1;fontSize=18;fontFamily=Comic Sans MS;" vertex="1" parent="1">
          <mxGeometry x="409" y="150" width="90" height="30" as="geometry" />
        </mxCell>
        <mxCell id="EnKquhXfZ4X2Hym33VpJ-19" style="edgeStyle=orthogonalEdgeStyle;rounded=0;orthogonalLoop=1;jettySize=auto;html=1;entryX=0;entryY=0.5;entryDx=0;entryDy=0;startArrow=none;startFill=0;endArrow=classic;endFill=1;fontFamily=Comic Sans MS;fontSize=18;fontColor=#000000;exitX=0;exitY=0.5;exitDx=0;exitDy=0;" edge="1" parent="1" source="EnKquhXfZ4X2Hym33VpJ-3" target="EnKquhXfZ4X2Hym33VpJ-1">
          <mxGeometry relative="1" as="geometry">
            <Array as="points">
              <mxPoint x="80" y="435" />
              <mxPoint x="80" y="260" />
            </Array>
          </mxGeometry>
        </mxCell>
        <mxCell id="EnKquhXfZ4X2Hym33VpJ-3" value="&lt;span style=&quot;color: rgb(51, 51, 51); font-family: &amp;quot;pingfang sc&amp;quot;, &amp;quot;lantinghei sc&amp;quot;, &amp;quot;microsoft yahei&amp;quot;, &amp;quot;hiragino sans gb&amp;quot;, &amp;quot;microsoft sans serif&amp;quot;, &amp;quot;wenquanyi micro hei&amp;quot;, helvetica, sans-serif;&quot;&gt;TASK_INTERRUPTIBLE&lt;/span&gt;" style="rounded=0;whiteSpace=wrap;html=1;fontSize=16;fontFamily=Comic Sans MS;fillColor=#fff2cc;strokeColor=none;labelBackgroundColor=none;shadow=1;" vertex="1" parent="1">
          <mxGeometry x="100" y="405" width="210" height="60" as="geometry" />
        </mxCell>
        <mxCell id="EnKquhXfZ4X2Hym33VpJ-20" style="edgeStyle=orthogonalEdgeStyle;rounded=0;orthogonalLoop=1;jettySize=auto;html=1;entryX=0;entryY=0.5;entryDx=0;entryDy=0;startArrow=none;startFill=0;endArrow=classic;endFill=1;fontFamily=Comic Sans MS;fontSize=18;fontColor=#000000;" edge="1" parent="1" source="EnKquhXfZ4X2Hym33VpJ-4" target="EnKquhXfZ4X2Hym33VpJ-1">
          <mxGeometry relative="1" as="geometry">
            <Array as="points">
              <mxPoint x="80" y="535" />
              <mxPoint x="80" y="260" />
            </Array>
          </mxGeometry>
        </mxCell>
        <mxCell id="EnKquhXfZ4X2Hym33VpJ-4" value="&lt;span style=&quot;color: rgb(51, 51, 51); font-family: &amp;quot;pingfang sc&amp;quot;, &amp;quot;lantinghei sc&amp;quot;, &amp;quot;microsoft yahei&amp;quot;, &amp;quot;hiragino sans gb&amp;quot;, &amp;quot;microsoft sans serif&amp;quot;, &amp;quot;wenquanyi micro hei&amp;quot;, helvetica, sans-serif;&quot;&gt;TASK_UNINTERRUPTIBLE&lt;/span&gt;" style="rounded=0;whiteSpace=wrap;html=1;fontSize=16;fontFamily=Comic Sans MS;fillColor=#fff2cc;strokeColor=none;labelBackgroundColor=none;shadow=1;" vertex="1" parent="1">
          <mxGeometry x="100" y="505" width="210" height="60" as="geometry" />
        </mxCell>
        <mxCell id="EnKquhXfZ4X2Hym33VpJ-18" style="edgeStyle=orthogonalEdgeStyle;rounded=0;orthogonalLoop=1;jettySize=auto;html=1;entryX=0;entryY=0.5;entryDx=0;entryDy=0;startArrow=none;startFill=0;endArrow=classic;endFill=1;fontFamily=Comic Sans MS;fontSize=18;fontColor=#000000;exitX=0;exitY=0.5;exitDx=0;exitDy=0;" edge="1" parent="1" source="EnKquhXfZ4X2Hym33VpJ-5" target="EnKquhXfZ4X2Hym33VpJ-1">
          <mxGeometry relative="1" as="geometry" />
        </mxCell>
        <mxCell id="EnKquhXfZ4X2Hym33VpJ-5" value="&lt;span style=&quot;color: rgb(51, 51, 51); font-family: &amp;quot;pingfang sc&amp;quot;, &amp;quot;lantinghei sc&amp;quot;, &amp;quot;microsoft yahei&amp;quot;, &amp;quot;hiragino sans gb&amp;quot;, &amp;quot;microsoft sans serif&amp;quot;, &amp;quot;wenquanyi micro hei&amp;quot;, helvetica, sans-serif;&quot;&gt;TASK_KILLABLE&lt;/span&gt;" style="rounded=0;whiteSpace=wrap;html=1;fontSize=16;fontFamily=Comic Sans MS;fillColor=#fff2cc;strokeColor=none;labelBackgroundColor=none;shadow=1;" vertex="1" parent="1">
          <mxGeometry x="100" y="305" width="210" height="60" as="geometry" />
        </mxCell>
        <mxCell id="EnKquhXfZ4X2Hym33VpJ-7" value="&lt;span style=&quot;color: rgb(51, 51, 51); font-family: &amp;quot;pingfang sc&amp;quot;, &amp;quot;lantinghei sc&amp;quot;, &amp;quot;microsoft yahei&amp;quot;, &amp;quot;hiragino sans gb&amp;quot;, &amp;quot;microsoft sans serif&amp;quot;, &amp;quot;wenquanyi micro hei&amp;quot;, helvetica, sans-serif;&quot;&gt;EXIT_ZOMBIE&lt;/span&gt;" style="rounded=0;whiteSpace=wrap;html=1;fontSize=16;fontFamily=Comic Sans MS;fillColor=#f8cecc;strokeColor=none;shadow=1;labelBackgroundColor=none;" vertex="1" parent="1">
          <mxGeometry x="384" y="550" width="140" height="60" as="geometry" />
        </mxCell>
        <mxCell id="EnKquhXfZ4X2Hym33VpJ-8" value="&lt;span style=&quot;color: rgb(51, 51, 51); font-family: &amp;quot;pingfang sc&amp;quot;, &amp;quot;lantinghei sc&amp;quot;, &amp;quot;microsoft yahei&amp;quot;, &amp;quot;hiragino sans gb&amp;quot;, &amp;quot;microsoft sans serif&amp;quot;, &amp;quot;wenquanyi micro hei&amp;quot;, helvetica, sans-serif;&quot;&gt;TASK_STOPPED&lt;/span&gt;" style="rounded=0;whiteSpace=wrap;html=1;fontSize=16;fontFamily=Comic Sans MS;fillColor=#f8cecc;strokeColor=none;shadow=1;labelBackgroundColor=none;" vertex="1" parent="1">
          <mxGeometry x="559" y="405" width="140" height="60" as="geometry" />
        </mxCell>
        <mxCell id="EnKquhXfZ4X2Hym33VpJ-10" style="rounded=0;orthogonalLoop=1;jettySize=auto;html=1;entryX=1;entryY=0.5;entryDx=0;entryDy=0;fontFamily=Comic Sans MS;fontSize=16;" edge="1" parent="1" source="EnKquhXfZ4X2Hym33VpJ-9" target="EnKquhXfZ4X2Hym33VpJ-5">
          <mxGeometry relative="1" as="geometry" />
        </mxCell>
        <mxCell id="EnKquhXfZ4X2Hym33VpJ-11" style="edgeStyle=none;rounded=0;orthogonalLoop=1;jettySize=auto;html=1;fontFamily=Comic Sans MS;fontSize=16;" edge="1" parent="1" source="EnKquhXfZ4X2Hym33VpJ-9" target="EnKquhXfZ4X2Hym33VpJ-3">
          <mxGeometry relative="1" as="geometry" />
        </mxCell>
        <mxCell id="EnKquhXfZ4X2Hym33VpJ-12" style="edgeStyle=none;rounded=0;orthogonalLoop=1;jettySize=auto;html=1;entryX=1;entryY=0.5;entryDx=0;entryDy=0;fontFamily=Comic Sans MS;fontSize=16;" edge="1" parent="1" source="EnKquhXfZ4X2Hym33VpJ-9" target="EnKquhXfZ4X2Hym33VpJ-4">
          <mxGeometry relative="1" as="geometry" />
        </mxCell>
        <mxCell id="EnKquhXfZ4X2Hym33VpJ-13" value="时间片用完&lt;br&gt;或被抢占" style="edgeStyle=none;rounded=0;orthogonalLoop=1;jettySize=auto;html=1;entryX=0.75;entryY=1;entryDx=0;entryDy=0;fontFamily=Comic Sans MS;fontSize=16;exitX=1;exitY=0;exitDx=0;exitDy=0;" edge="1" parent="1" source="EnKquhXfZ4X2Hym33VpJ-9" target="EnKquhXfZ4X2Hym33VpJ-1">
          <mxGeometry x="0.145" y="-9" relative="1" as="geometry">
            <mxPoint as="offset" />
          </mxGeometry>
        </mxCell>
        <mxCell id="EnKquhXfZ4X2Hym33VpJ-14" value="分配 CPU" style="edgeStyle=none;rounded=0;orthogonalLoop=1;jettySize=auto;html=1;entryX=0.25;entryY=1;entryDx=0;entryDy=0;fontFamily=Comic Sans MS;fontSize=16;startArrow=classic;startFill=1;endArrow=none;endFill=0;" edge="1" parent="1" source="EnKquhXfZ4X2Hym33VpJ-9" target="EnKquhXfZ4X2Hym33VpJ-1">
          <mxGeometry relative="1" as="geometry" />
        </mxCell>
        <mxCell id="EnKquhXfZ4X2Hym33VpJ-15" style="edgeStyle=none;rounded=0;orthogonalLoop=1;jettySize=auto;html=1;entryX=0;entryY=0.5;entryDx=0;entryDy=0;fontFamily=Comic Sans MS;fontSize=16;" edge="1" parent="1" source="EnKquhXfZ4X2Hym33VpJ-9" target="EnKquhXfZ4X2Hym33VpJ-8">
          <mxGeometry relative="1" as="geometry" />
        </mxCell>
        <mxCell id="EnKquhXfZ4X2Hym33VpJ-16" value="exit" style="edgeStyle=none;rounded=0;orthogonalLoop=1;jettySize=auto;html=1;entryX=0.5;entryY=0;entryDx=0;entryDy=0;fontFamily=Comic Sans MS;fontSize=16;" edge="1" parent="1" source="EnKquhXfZ4X2Hym33VpJ-9" target="EnKquhXfZ4X2Hym33VpJ-7">
          <mxGeometry relative="1" as="geometry" />
        </mxCell>
        <mxCell id="EnKquhXfZ4X2Hym33VpJ-9" value="运行" style="ellipse;whiteSpace=wrap;html=1;aspect=fixed;fontFamily=Comic Sans MS;fontSize=16;fillColor=#d5e8d4;strokeColor=none;shadow=1;" vertex="1" parent="1">
          <mxGeometry x="409" y="390" width="90" height="90" as="geometry" />
        </mxCell>
      </root>
    </mxGraphModel>
  </diagram>
</mxfile>
